@startuml
'https://plantuml.com/class-diagram

class Company {
    designation
}

class System {
}

class SNSUser{
  name
  birthDate
  SNSNumber
  phoneNumber
  email
  sex
  address
  citizenCardID
}

Company "1" --> "1" System: > manages
System "1" --> "0..1" SNSUser: > notifies
Company "1" -> "*" SNSUser: > owns
@enduml